<svg width="1187" height="380" viewBox="0 0 1187 380" fill="none" xmlns="http://www.w3.org/2000/svg">
<path d="M114.669 352.815L114.686 352.315L114.669 352.815ZM276.976 287.266L277.333 287.616L276.976 287.266ZM572.202 6.0555L572.015 6.51909L572.202 6.0555ZM798.631 379.335L798.611 378.835L798.631 379.335ZM1001.01 287.266L1001.31 287.672L1001.31 287.668L1001.01 287.266ZM1185.45 100.361L1184.96 100.433L1185.45 100.361ZM898.129 99.9789C897.919 100.157 897.892 100.473 898.071 100.684L900.978 104.119C901.156 104.329 901.472 104.356 901.683 104.177C901.893 103.999 901.92 103.683 901.741 103.472L899.157 100.419L902.21 97.8351C902.421 97.6567 902.447 97.3412 902.269 97.1305C902.091 96.9197 901.775 96.8934 901.564 97.0718L898.129 99.9789ZM0.452438 260.746L-7.12276e-06 260.959C0.706727 262.461 1.40738 263.951 2.10327 265.428L2.55558 265.215L3.00789 265.002C2.31217 263.526 1.61171 262.036 0.904884 260.533L0.452438 260.746ZM6.79134 274.135L6.34063 274.352C7.79205 277.374 9.2361 280.333 10.6868 283.225L11.1337 283.001L11.5806 282.777C10.1332 279.891 8.69176 276.937 7.24204 273.919L6.79134 274.135ZM15.6767 291.763L15.2365 292C16.827 294.954 18.4425 297.826 20.1004 300.61L20.53 300.354L20.9596 300.098C19.3102 297.328 17.7018 294.469 16.117 291.526L15.6767 291.763ZM25.8162 308.683L25.4027 308.964C27.2846 311.733 29.2357 314.396 31.2775 316.946L31.6678 316.634L32.0581 316.321C30.0343 313.793 28.0986 311.152 26.2298 308.402L25.8162 308.683ZM38.1863 324.039L37.8278 324.388C40.1322 326.758 42.5544 329.002 45.1175 331.114L45.4354 330.728L45.7533 330.342C43.2201 328.255 40.8249 326.036 38.5448 323.691L38.1863 324.039ZM53.4047 336.545L53.1342 336.965C55.8595 338.718 58.732 340.344 61.7715 341.835L61.9917 341.386L62.212 340.938C59.2069 339.463 56.3679 337.856 53.6752 336.124L53.4047 336.545ZM71.0655 345.247L70.8939 345.717C73.8969 346.814 77.0465 347.801 80.3563 348.673L80.4837 348.19L80.6111 347.706C77.3299 346.841 74.2099 345.864 71.2371 344.777L71.0655 345.247ZM90.1352 350.319L90.0462 350.811C93.1719 351.377 96.4266 351.854 99.8192 352.241L99.8758 351.744L99.9324 351.247C96.5603 350.863 93.3273 350.389 90.2242 349.827L90.1352 350.319ZM109.709 352.584L109.68 353.083C111.308 353.179 112.965 353.256 114.651 353.315L114.669 352.815L114.686 352.315C113.007 352.257 111.358 352.18 109.739 352.085L109.709 352.584ZM114.669 352.815L114.651 353.315C116.322 353.372 117.989 353.406 119.652 353.415L119.655 352.915L119.658 352.415C118.004 352.406 116.347 352.373 114.686 352.315L114.669 352.815ZM129.616 352.691L129.641 353.19C132.982 353.022 136.304 352.762 139.603 352.418L139.551 351.921L139.499 351.423C136.217 351.766 132.913 352.024 129.591 352.192L129.616 352.691ZM149.432 350.631L149.509 351.125C152.814 350.609 156.091 350.012 159.338 349.341L159.236 348.851L159.135 348.362C155.904 349.029 152.643 349.623 149.354 350.137L149.432 350.631ZM168.947 346.609L169.07 347.093C172.314 346.265 175.521 345.368 178.688 344.409L178.543 343.931L178.398 343.452C175.245 344.407 172.052 345.3 168.823 346.124L168.947 346.609ZM188.021 340.841L188.186 341.313C191.353 340.207 194.471 339.045 197.538 337.833L197.355 337.368L197.171 336.903C194.116 338.11 191.01 339.268 187.857 340.369L188.021 340.841ZM206.557 333.524L206.759 333.981C209.841 332.623 212.863 331.22 215.818 329.783L215.599 329.333L215.381 328.883C212.437 330.316 209.426 331.713 206.355 333.066L206.557 333.524ZM224.47 324.813L224.706 325.254C227.698 323.659 230.61 322.035 233.434 320.393L233.183 319.961L232.932 319.529C230.118 321.164 227.217 322.782 224.235 324.371L224.47 324.813ZM241.709 314.791L241.976 315.213C244.871 313.383 247.653 311.545 250.314 309.715L250.031 309.303L249.747 308.891C247.097 310.714 244.326 312.545 241.442 314.368L241.709 314.791ZM258.123 303.487L258.423 303.887C261.213 301.79 263.828 299.724 266.253 297.711L265.934 297.327L265.615 296.942C263.202 298.943 260.6 301 257.822 303.087L258.123 303.487ZM273.433 290.727L273.776 291.092C275.046 289.898 276.233 288.738 277.333 287.616L276.976 287.266L276.619 286.916C275.53 288.027 274.352 289.178 273.091 290.363L273.433 290.727ZM276.976 287.266L277.333 287.616C278.302 286.628 279.38 285.404 280.556 283.966L280.169 283.65L279.782 283.333C278.617 284.756 277.561 285.956 276.619 286.916L276.976 287.266ZM286.097 275.81L286.504 276.101C288.259 273.646 290.144 270.919 292.143 267.953L291.728 267.674L291.314 267.395C289.318 270.355 287.439 273.074 285.69 275.519L286.097 275.81ZM297.119 259.53L297.538 259.803C299.255 257.17 301.035 254.406 302.87 251.528L302.448 251.26L302.027 250.991C300.193 253.866 298.415 256.627 296.7 259.257L297.119 259.53ZM307.717 242.934L308.141 243.2C309.843 240.492 311.582 237.708 313.355 234.857L312.931 234.593L312.506 234.329C310.734 237.178 308.995 239.961 307.294 242.668L307.717 242.934ZM318.101 226.251L318.526 226.514C320.221 223.771 321.939 220.98 323.679 218.151L323.253 217.889L322.827 217.627C321.088 220.456 319.369 223.246 317.675 225.988L318.101 226.251ZM328.393 209.516L328.819 209.777C330.516 207.009 332.229 204.214 333.953 201.398L333.527 201.137L333.1 200.876C331.376 203.691 329.664 206.487 327.967 209.255L328.393 209.516ZM338.659 192.757L339.085 193.018C340.79 190.235 342.503 187.441 344.221 184.641L343.795 184.38L343.369 184.118C341.651 186.918 339.938 189.713 338.233 192.496L338.659 192.757ZM348.939 176.009L349.365 176.271C351.083 173.479 352.804 170.69 354.522 167.91L354.097 167.647L353.672 167.384C351.953 170.165 350.232 172.955 348.514 175.747L348.939 176.009ZM359.274 159.299L359.698 159.563C361.438 156.766 363.172 153.987 364.899 151.232L364.475 150.966L364.052 150.701C362.324 153.457 360.589 156.237 358.849 159.035L359.274 159.299ZM369.709 142.653L370.132 142.92C371.903 140.12 373.663 137.355 375.406 134.632L374.985 134.362L374.564 134.093C372.819 136.817 371.059 139.584 369.287 142.386L369.709 142.653ZM380.313 126.1L380.732 126.372C382.553 123.57 384.352 120.825 386.123 118.149L385.706 117.873L385.289 117.597C383.516 120.276 381.716 123.023 379.893 125.827L380.313 126.1ZM391.182 109.697L391.595 109.977C393.494 107.178 395.353 104.475 397.167 101.884L396.757 101.597L396.347 101.31C394.53 103.906 392.668 106.613 390.768 109.416L391.182 109.697ZM402.451 93.6273L402.855 93.9224C404.909 91.1133 406.889 88.486 408.782 86.064L408.388 85.7561L407.994 85.4481C406.093 87.88 404.107 90.516 402.048 93.3321L402.451 93.6273ZM414.587 78.2225L414.963 78.5521C416.113 77.2409 417.216 76.0395 418.269 74.955L417.91 74.6068L417.551 74.2585C416.485 75.3571 415.37 76.5712 414.211 77.8928L414.587 78.2225ZM417.91 74.6068L418.269 74.955C419.396 73.7934 420.554 72.6071 421.739 71.3999L421.382 71.0496L421.026 70.6992C419.839 71.908 418.68 73.0957 417.551 74.2585L417.91 74.6068ZM428.409 64.0001L428.76 64.3559C431.059 62.0864 433.443 59.7733 435.904 57.438L435.56 57.0753L435.216 56.7125C432.749 59.0529 430.361 61.3706 428.057 63.6442L428.409 64.0001ZM442.855 50.3137L443.191 50.6845C445.616 48.4908 448.104 46.2959 450.65 44.117L450.325 43.7371L450 43.3572C447.446 45.5425 444.951 47.7436 442.52 49.9429L442.855 50.3137ZM457.989 37.3816L458.302 37.7716C460.874 35.7086 463.495 33.6768 466.163 31.6917L465.864 31.2906L465.566 30.8895C462.888 32.8823 460.257 34.9216 457.677 36.9916L457.989 37.3816ZM473.968 25.513L474.25 25.9262C476.989 24.0603 479.769 22.2563 482.585 20.5295L482.324 20.1032L482.063 19.6769C479.231 21.4127 476.438 23.2255 473.687 25.0998L473.968 25.513ZM490.945 15.1341L491.182 15.5742C494.109 13.9962 497.07 12.5137 500.059 11.1427L499.851 10.6882L499.642 10.2337C496.632 11.6143 493.652 13.1065 490.708 14.694L490.945 15.1341ZM509.043 6.87147L509.217 7.34025C512.334 6.18367 515.477 5.16125 518.641 4.29012L518.508 3.80806L518.376 3.326C515.182 4.20529 512.012 5.23674 508.869 6.40268L509.043 6.87147ZM528.215 1.63604L528.299 2.12888C531.56 1.57099 534.838 1.18812 538.127 0.998348L538.098 0.499178L538.07 8.31485e-06C534.741 0.19204 531.427 0.579352 528.131 1.1432L528.215 1.63604ZM548.042 0.526466L548.01 1.02542C551.27 1.23619 554.537 1.65205 557.806 2.29046L557.902 1.79973L557.997 1.309C554.685 0.662204 551.376 0.24097 548.075 0.0275082L548.042 0.526466ZM567.523 4.3322L567.365 4.8066C568.915 5.32288 570.466 5.89308 572.015 6.51909L572.202 6.0555L572.39 5.59191C570.821 4.95811 569.251 4.3807 567.681 3.85781L567.523 4.3322ZM572.202 6.0555L572.015 6.51909C573.505 7.12117 574.981 7.77351 576.442 8.47473L576.658 8.02394L576.875 7.57315C575.395 6.863 573.9 6.20208 572.39 5.59191L572.202 6.0555ZM585.222 12.7796L584.955 13.2022C587.665 14.916 590.325 16.8011 592.937 18.8473L593.245 18.4537L593.554 18.0601C590.917 15.9945 588.23 14.0899 585.489 12.357L585.222 12.7796ZM600.686 24.8266L600.345 25.1926C602.674 27.3608 604.964 29.6579 607.217 32.0761L607.582 31.7353L607.948 31.3946C605.681 28.9602 603.374 26.6461 601.026 24.4607L600.686 24.8266ZM614.038 39.1115L613.652 39.4296C615.702 41.9143 617.719 44.4988 619.707 47.1762L620.108 46.8782L620.51 46.5802C618.513 43.89 616.485 41.292 614.424 38.7933L614.038 39.1115ZM625.757 54.8497L625.343 55.1302C627.143 57.7865 628.918 60.5179 630.669 63.3189L631.093 63.0538L631.517 62.7888C629.76 59.9781 627.978 57.2364 626.171 54.5692L625.757 54.8497ZM636.183 71.4982L635.75 71.7496C637.366 74.5262 638.961 77.3603 640.536 80.2472L640.975 80.0076L641.414 79.7681C639.834 76.8737 638.235 74.0317 636.615 71.2468L636.183 71.4982ZM645.568 88.6721L645.124 88.9011C646.611 91.7872 648.081 94.7181 649.536 97.6898L649.985 97.47L650.434 97.2503C648.977 94.2727 647.503 91.3356 646.013 88.443L645.568 88.6721ZM654.196 106.281L653.743 106.493C655.12 109.44 656.483 112.421 657.833 115.433L658.289 115.229L658.745 115.024C657.394 112.008 656.028 109.022 654.649 106.069L654.196 106.281ZM662.227 124.186L661.768 124.384C663.057 127.37 664.333 130.381 665.599 133.413L666.061 133.221L666.522 133.028C665.255 129.992 663.976 126.978 662.686 123.988L662.227 124.186ZM669.792 142.295L669.329 142.483C670.551 145.499 671.763 148.532 672.966 151.579L673.431 151.395L673.896 151.212C672.692 148.162 671.479 145.126 670.256 142.107L669.792 142.295ZM677.002 160.544L676.535 160.724C677.709 163.764 678.874 166.815 680.032 169.873L680.5 169.696L680.967 169.519C679.809 166.459 678.643 163.406 677.468 160.364L677.002 160.544ZM683.95 178.883L683.481 179.058C684.622 182.119 685.756 185.185 686.885 188.252L687.354 188.079L687.823 187.906C686.694 184.839 685.56 181.772 684.418 178.708L683.95 178.883ZM690.726 197.29L690.256 197.461C691.377 200.537 692.493 203.611 693.605 206.679L694.075 206.508L694.545 206.338C693.434 203.27 692.317 200.195 691.196 197.118L690.726 197.29ZM697.413 215.736L696.943 215.905C698.056 218.987 699.166 222.06 700.273 225.12L700.743 224.95L701.213 224.78C700.106 221.72 698.997 218.647 697.883 215.566L697.413 215.736ZM704.09 234.188L703.62 234.359C704.738 237.436 705.854 240.497 706.968 243.538L707.438 243.366L707.907 243.194C706.793 240.154 705.678 237.094 704.56 234.017L704.09 234.188ZM710.844 252.609L710.375 252.783C711.519 255.865 712.661 258.922 713.804 261.95L714.272 261.774L714.74 261.597C713.598 258.571 712.456 255.516 711.313 252.435L710.844 252.609ZM717.77 270.95L717.304 271.129C718.495 274.217 719.687 277.27 720.881 280.284L721.346 280.1L721.81 279.915C720.618 276.905 719.427 273.855 718.237 270.77L717.77 270.95ZM724.984 289.137L724.521 289.326C725.787 292.417 727.056 295.46 728.33 298.448L728.79 298.252L729.25 298.056C727.978 295.072 726.711 292.034 725.447 288.947L724.984 289.137ZM732.708 307.235L732.252 307.439C733.602 310.46 734.959 313.416 736.324 316.301L736.776 316.087L737.228 315.873C735.867 312.995 734.513 310.046 733.165 307.031L732.708 307.235ZM741.119 324.963L740.673 325.189C742.191 328.185 743.721 331.088 745.264 333.89L745.702 333.648L746.14 333.407C744.603 330.616 743.078 327.724 741.565 324.737L741.119 324.963ZM750.591 342.106L750.164 342.366C751.914 345.238 753.682 347.976 755.471 350.569L755.883 350.285L756.294 350.001C754.517 347.426 752.759 344.704 751.018 341.846L750.591 342.106ZM761.76 358.16L761.372 358.475C763.538 361.142 765.738 363.591 767.977 365.804L768.329 365.449L768.68 365.093C766.471 362.909 764.294 360.487 762.148 357.845L761.76 358.16ZM775.764 371.793L775.472 372.199C778.276 374.217 781.146 375.864 784.087 377.108L784.281 376.647L784.476 376.186C781.612 374.976 778.808 373.367 776.056 371.387L775.764 371.793ZM793.709 379.156L793.652 379.653C795.298 379.839 796.964 379.901 798.651 379.834L798.631 379.335L798.611 378.835C796.975 378.9 795.359 378.84 793.765 378.66L793.709 379.156ZM798.631 379.335L798.651 379.834C800.374 379.766 802.092 379.676 803.806 379.567L803.773 379.068L803.742 378.569C802.036 378.678 800.326 378.767 798.611 378.835L798.631 379.335ZM814.013 378.166L814.069 378.663C817.494 378.28 820.898 377.819 824.278 377.286L824.2 376.792L824.122 376.298C820.757 376.829 817.368 377.288 813.958 377.669L814.013 378.166ZM834.316 374.97L834.415 375.46C837.792 374.777 841.143 374.026 844.464 373.212L844.345 372.726L844.226 372.241C840.918 373.052 837.58 373.8 834.216 374.48L834.316 374.97ZM854.282 370.083L854.42 370.563C857.737 369.613 861.021 368.603 864.27 367.541L864.114 367.066L863.959 366.59C860.721 367.649 857.449 368.655 854.145 369.602L854.282 370.083ZM873.832 363.699L874.003 364.168C877.247 362.982 880.452 361.746 883.615 360.47L883.428 360.006L883.241 359.542C880.088 360.815 876.893 362.046 873.66 363.229L873.832 363.699ZM892.898 356.009L893.1 356.467C896.265 355.072 899.384 353.641 902.453 352.181L902.238 351.729L902.023 351.278C898.963 352.734 895.853 354.161 892.697 355.551L892.898 356.009ZM911.462 347.177L911.69 347.622C914.786 346.041 917.825 344.434 920.803 342.812L920.563 342.373L920.324 341.934C917.354 343.552 914.323 345.154 911.235 346.732L911.462 347.177ZM929.528 337.34L929.778 337.773C932.795 336.029 935.74 334.277 938.609 332.525L938.349 332.098L938.088 331.672C935.226 333.419 932.287 335.168 929.277 336.907L929.528 337.34ZM947.086 326.626L947.356 327.047C950.315 325.146 953.179 323.258 955.943 321.397L955.664 320.982L955.384 320.568C952.626 322.425 949.768 324.308 946.815 326.205L947.086 326.626ZM964.147 315.14L964.435 315.549C967.354 313.494 970.135 311.491 972.768 309.561L972.473 309.158L972.177 308.754C969.548 310.682 966.773 312.68 963.859 314.731L964.147 315.14ZM980.714 303.001L981.017 303.399C983.998 301.132 986.718 299.023 989.158 297.113L988.85 296.719L988.542 296.326C986.104 298.233 983.388 300.34 980.412 302.603L980.714 303.001ZM996.942 290.36L997.25 290.754C998.9 289.465 1000.26 288.426 1001.31 287.672L1001.01 287.266L1000.72 286.86C999.655 287.627 998.285 288.677 996.634 289.966L996.942 290.36ZM1001.01 287.266L1001.31 287.668C1002.66 286.673 1004.04 285.66 1005.44 284.631L1005.14 284.228L1004.84 283.826C1003.45 284.855 1002.07 285.867 1000.72 286.863L1001.01 287.266ZM1013.49 278.083L1013.79 278.486C1016.5 276.488 1019.28 274.441 1022.11 272.347L1021.81 271.945L1021.51 271.543C1018.68 273.636 1015.91 275.683 1013.19 277.68L1013.49 278.083ZM1030.11 265.797L1030.41 266.198C1033.13 264.173 1035.9 262.111 1038.69 260.017L1038.39 259.617L1038.09 259.217C1035.3 261.31 1032.53 263.371 1029.81 265.396L1030.11 265.797ZM1046.66 253.402L1046.96 253.801C1049.68 251.741 1052.43 249.654 1055.2 247.544L1054.89 247.147L1054.59 246.749C1051.83 248.858 1049.08 250.944 1046.36 253.003L1046.66 253.402ZM1063.09 240.846L1063.4 241.242C1066.12 239.142 1068.84 237.023 1071.56 234.888L1071.26 234.494L1070.95 234.1C1068.22 236.235 1065.5 238.352 1062.79 240.45L1063.09 240.846ZM1079.37 228.084L1079.68 228.476C1082.38 226.33 1085.07 224.17 1087.75 221.999L1087.44 221.611L1087.12 221.222C1084.44 223.391 1081.75 225.549 1079.06 227.693L1079.37 228.084ZM1095.44 215.065L1095.76 215.45C1098.43 213.248 1101.08 211.037 1103.7 208.82L1103.38 208.438L1103.06 208.056C1100.44 210.27 1097.79 212.479 1095.12 214.679L1095.44 215.065ZM1111.24 201.722L1111.57 202.1C1114.2 199.828 1116.79 197.553 1119.35 195.278L1119.02 194.904L1118.69 194.531C1116.13 196.803 1113.54 199.074 1110.92 201.344L1111.24 201.722ZM1126.69 187.973L1127.03 188.342C1129.59 185.982 1132.11 183.626 1134.58 181.276L1134.23 180.914L1133.89 180.552C1131.43 182.898 1128.91 185.25 1126.35 187.605L1126.69 187.973ZM1141.63 173.704L1141.99 174.058C1144.48 171.575 1146.9 169.103 1149.24 166.645L1148.88 166.301L1148.51 165.956C1146.18 168.406 1143.77 170.872 1141.28 173.35L1141.63 173.704ZM1155.9 158.692L1156.27 159.025C1158.63 156.381 1160.88 153.759 1163.02 151.165L1162.63 150.847L1162.24 150.53C1160.12 153.112 1157.88 155.724 1155.53 158.359L1155.9 158.692ZM1168.97 142.732L1169.37 143.028C1171.52 140.119 1173.49 137.253 1175.27 134.438L1174.85 134.17L1174.43 133.903C1172.66 136.695 1170.7 139.542 1168.57 142.435L1168.97 142.732ZM1179.93 125.217L1180.38 125.44C1182.02 122.131 1183.35 118.909 1184.32 115.789L1183.84 115.64L1183.37 115.492C1182.41 118.552 1181.11 121.725 1179.48 124.995L1179.93 125.217ZM1185.71 105.507L1186.21 105.527C1186.28 103.734 1186.19 101.986 1185.95 100.288L1185.45 100.361L1184.96 100.433C1185.2 102.065 1185.28 103.751 1185.21 105.487L1185.71 105.507ZM1185.45 100.361L1185.95 100.288C1185.7 98.5573 1185.17 96.939 1184.39 95.4304L1183.95 95.6597L1183.5 95.889C1184.23 97.2991 1184.72 98.8111 1184.96 100.433L1185.45 100.361ZM1177.22 88.524L1177.5 88.1083C1175 86.4409 1172.02 85.0035 1168.6 83.7723L1168.43 84.2426L1168.27 84.7129C1171.62 85.924 1174.53 87.328 1176.94 88.9397L1177.22 88.524ZM1158.86 81.5407L1158.96 81.0523C1155.91 80.3839 1152.64 79.8178 1149.19 79.3458L1149.12 79.8412L1149.06 80.3366C1152.49 80.8056 1155.73 81.3673 1158.75 82.0291L1158.86 81.5407ZM1139.31 78.7861L1139.35 78.2877C1136.17 78.0278 1132.86 77.8293 1129.46 77.6873L1129.44 78.1869L1129.41 78.6865C1132.81 78.8279 1136.1 79.0257 1139.27 79.2844L1139.31 78.7861ZM1119.54 77.9326L1119.54 77.4327C1116.31 77.3972 1113 77.4038 1109.63 77.4491L1109.64 77.9491L1109.65 78.449C1113.01 78.4038 1116.31 78.3972 1119.53 78.4326L1119.54 77.9326ZM1099.78 78.1826L1099.77 77.6829C1096.52 77.7912 1093.22 77.9301 1089.89 78.0969L1089.92 78.5963L1089.94 79.0957C1093.27 78.9291 1096.56 78.7904 1099.8 78.6823L1099.78 78.1826ZM1080.04 79.1624L1080.01 78.6635C1076.74 78.8735 1073.45 79.1067 1070.13 79.3607L1070.17 79.8592L1070.2 80.3577C1073.52 80.1041 1076.81 79.8712 1080.07 79.6614L1080.04 79.1624ZM1060.3 80.6685L1060.25 80.1704C1056.98 80.4557 1053.7 80.7583 1050.41 81.0761L1050.46 81.5738L1050.51 82.0715C1053.79 81.754 1057.07 81.4516 1060.34 81.1666L1060.3 80.6685ZM1040.62 82.5658L1040.57 82.0685C1037.29 82.4128 1034 82.7697 1030.73 83.1372L1030.78 83.634L1030.84 84.1309C1034.11 83.7638 1037.39 83.4071 1040.67 83.0631L1040.62 82.5658ZM1020.96 84.7682L1020.91 84.2717C1017.62 84.6618 1014.34 85.0602 1011.09 85.4646L1011.15 85.9608L1011.22 86.457C1014.47 86.0527 1017.74 85.6546 1021.02 85.2647L1020.96 84.7682ZM1001.33 87.208L1001.27 86.7122C997.96 87.1398 994.685 87.5714 991.447 88.0043L991.513 88.4999L991.58 88.9955C994.816 88.5628 998.09 88.1314 1001.39 87.7039L1001.33 87.208ZM981.713 89.8286L981.645 89.3332C978.33 89.7885 975.066 90.2422 971.861 90.6915L971.931 91.1867L972 91.6818C975.204 91.2326 978.467 90.779 981.781 90.3239L981.713 89.8286ZM962.163 92.5667L962.092 92.0716C958.752 92.5466 955.493 93.0127 952.327 93.466L952.398 93.9609L952.469 94.4559C955.635 94.0026 958.894 93.5366 962.233 93.0617L962.163 92.5667ZM942.608 95.3616L942.537 94.8667C939.125 95.3535 935.853 95.8179 932.739 96.2537L932.808 96.7489L932.877 97.2441C935.993 96.808 939.266 96.3436 942.678 95.8566L942.608 95.3616ZM922.947 98.1003L922.881 97.6047C919.282 98.0839 915.991 98.5023 913.049 98.8467L913.107 99.3433L913.165 99.8399C916.115 99.4947 919.411 99.0755 923.013 98.5959L922.947 98.1003ZM903.237 100.297L903.206 99.7982C901.152 99.9275 899.57 99.9519 898.494 99.8623L898.452 100.361L898.411 100.859C899.563 100.955 901.203 100.926 903.269 100.796L903.237 100.297Z" fill="#CB5602"/>
</svg>
